<svg width="7" height="12" viewBox="0 0 7 12" fill="none" xmlns="http://www.w3.org/2000/svg">
<path d="M2.79961 6.00078L6.69961 2.10078C6.88294 1.91745 6.97461 1.68411 6.97461 1.40078C6.97461 1.11745 6.88294 0.884115 6.69961 0.700781C6.51628 0.517448 6.28294 0.425781 5.99961 0.425781C5.71628 0.425781 5.48294 0.517448 5.29961 0.700781L0.699609 5.30078C0.599609 5.40078 0.528776 5.50911 0.487109 5.62578C0.445443 5.74245 0.424609 5.86745 0.424609 6.00078C0.424609 6.13411 0.445443 6.25911 0.487109 6.37578C0.528776 6.49245 0.599609 6.60078 0.699609 6.70078L5.29961 11.3008C5.48294 11.4841 5.71628 11.5758 5.99961 11.5758C6.28294 11.5758 6.51628 11.4841 6.69961 11.3008C6.88294 11.1174 6.97461 10.8841 6.97461 10.6008C6.97461 10.3174 6.88294 10.0841 6.69961 9.90078L2.79961 6.00078Z" fill="#333333"/>
</svg>
